<svg id="Layer_1" data-name="Layer 1" xmlns="http://www.w3.org/2000/svg" viewBox="0 0 150 150"><defs><style>.cls-1{fill:#f2f2f2;}.cls-2{fill:#28e7a8;}.cls-3{fill:#373737;}</style></defs><title>icon-1</title><g id="Page-1"><g id="Tablet-portrait"><g id="icon-1"><circle id="Oval" class="cls-1" cx="75" cy="75" r="75"/><g id="Group-8"><g id="coffee-maker"><path id="Fill-1" class="cls-2" d="M50.56,90.42A4.46,4.46,0,1,0,55,86a4.47,4.47,0,0,0-4.46,4.46"/><path id="Fill-2" class="cls-3" d="M75.84,59.7h6.65v4.39H95.67V59.7h11V52.27A10.15,10.15,0,0,0,96.57,42.13H75.84V59.7"/><path id="Fill-4" class="cls-3" d="M45.85,68.57H63.56V64.18H45.85Zm17.7,22a8.85,8.85,0,1,1-8.84-8.85A8.85,8.85,0,0,1,63.55,90.6ZM45.85,77.35H63.56V73H45.85ZM72.33,95.06V42.13H59.74A22.69,22.69,0,0,0,37.08,64.8v43.43H112V95.06Z"/></g><g id="Group"><path id="Fill-1-2" data-name="Fill-1" class="cls-2" d="M106.94,82.26a2.21,2.21,0,0,0-1.86-.92h-3.74c0-.57,0-1,.06-1.37a.59.59,0,0,0-.59-.58H77.55A.58.58,0,0,0,77,80c0,2.5.68,12.34,8.66,14.74H93.1A10.14,10.14,0,0,0,98.87,90a8.82,8.82,0,0,0,8.23-5.86A2,2,0,0,0,106.94,82.26Zm-1.44,1.26a7.09,7.09,0,0,1-5.72,4.69,20.54,20.54,0,0,0,1.37-5.14h3.93a.52.52,0,0,1,.42.16A.29.29,0,0,1,105.5,83.52Z"/></g></g></g></g></g></svg>