<svg id="Layer_1" data-name="Layer 1" xmlns="http://www.w3.org/2000/svg" viewBox="0 0 150 150"><defs><style>.cls-1{fill:#f2f2f2;}.cls-2{fill:#28e7a8;}.cls-3{fill:#373737;}</style></defs><title>icon-3</title><g id="Page-1"><g id="Tablet-portrait"><g id="icon-3"><circle id="Oval" class="cls-1" cx="75" cy="75" r="75"/><g id="waitress"><path id="Fill-2" class="cls-2" d="M87.59,104.28h6.47a1.59,1.59,0,1,1,0,3.17H87.59a1.59,1.59,0,1,1,0-3.17ZM53.5,113.76H99.06a145,145,0,0,1,2.91-20L91.53,88.65a1.65,1.65,0,0,0-2.09.56L76.26,109.27,63.09,89.21A1.66,1.66,0,0,0,61,88.65L50.56,93.74A140.63,140.63,0,0,1,53.5,113.76Z"/><path id="Fill-4" class="cls-2" d="M47.08,95.22l-3.27,1.62A7.9,7.9,0,0,0,39.62,102l-2.49,9.81a1.58,1.58,0,0,0,.28,1.36,1.61,1.61,0,0,0,1.26.6h11a142,142,0,0,0-2.64-18.54"/><path id="Fill-6" class="cls-2" d="M113.55,111.39l-2.37-9.4A8,8,0,0,0,107,96.84l-3.26-1.62a146.58,146.58,0,0,0-2.63,18.54h11a1.59,1.59,0,0,0,1.59-1.58,1.53,1.53,0,0,0-.21-.79"/><path id="Fill-7" class="cls-3" d="M71,69.1H68.05a1.7,1.7,0,0,1,0-3.37H71a1.7,1.7,0,0,1,0,3.37"/><path id="Fill-8" class="cls-3" d="M83.63,69.1H80.69a1.7,1.7,0,0,1,0-3.37h2.94a1.7,1.7,0,0,1,0,3.37"/><path id="Fill-9" class="cls-3" d="M76.26,87.78c-6.85,0-13-6.1-15.24-15.21a1.63,1.63,0,0,0-1-1.07,1.71,1.71,0,0,0-1.52.17c-.39,0-1.62-1.71-1.62-4.84a10.26,10.26,0,0,1,.27-2.4c2.41-1.12,9.78-5.06,12-12.47C74,57.26,84.91,64.31,95.44,64.84a10,10,0,0,1,.19,2c0,3.12-1.15,4.88-1.71,4.76a1.64,1.64,0,0,0-1.46-.14,1.67,1.67,0,0,0-1,1.1C89.25,81.68,83.12,87.78,76.26,87.78Zm28.6-9.2c-3.09-3.08-6-14.6-6-19.8a22.61,22.61,0,0,0-45.22,0c0,5.21-2.89,16.72-6,19.8a1.59,1.59,0,0,0,0,2.28c3.57,3.57,15.73,5.12,17.09,5.3a.68.68,0,0,0,.2,0,15.65,15.65,0,0,0,22.61,0,.68.68,0,0,0,.2,0c1.38-.16,13.52-1.73,17.09-5.3A1.59,1.59,0,0,0,104.86,78.58Z"/><path id="Fill-10" class="cls-3" d="M81.88,78.62a1.43,1.43,0,0,0-2.08.53s-.87,1-3.54,1-3.53-1-3.53-1a1.43,1.43,0,0,0-2.08-.53,1.74,1.74,0,0,0-.48,2.27c.24.43,1.67,2.54,6.09,2.54s5.86-2.11,6.1-2.54a1.76,1.76,0,0,0-.48-2.27"/></g></g></g></g></svg>