<svg id="Layer_1" data-name="Layer 1" xmlns="http://www.w3.org/2000/svg" viewBox="0 0 150 150"><defs><style>.cls-1{fill:#f2f2f2;}.cls-2{fill:#373737;}.cls-3{fill:#28e7a8;}</style></defs><title>icon-2</title><g id="Page-1"><g id="Tablet-portrait"><g id="icon-2"><circle id="Oval" class="cls-1" cx="75" cy="75" r="75"/><g id="Group-6"><g id="shopping-bag"><path id="Fill-1" class="cls-2" d="M90.8,73.76a6.19,6.19,0,0,1-6.19-6.19,5.85,5.85,0,0,1,3.71-5.67v5.67a2.48,2.48,0,1,0,5,0V61.91A5.84,5.84,0,0,1,97,67.57,6.19,6.19,0,0,1,90.8,73.76Zm-30.94,0a6.19,6.19,0,0,1-6.19-6.19,5.85,5.85,0,0,1,3.71-5.67v5.67a2.48,2.48,0,1,0,4.95,0V61.91a5.84,5.84,0,0,1,3.72,5.66A6.19,6.19,0,0,1,59.86,73.76ZM75.33,40.34a13,13,0,0,1,13,13v3.09h-26V53.34A13,13,0,0,1,75.33,40.34ZM105,57a.61.61,0,0,0-.61-.58H93.28V53.34a18,18,0,0,0-35.9,0v3.09H46.24a.61.61,0,0,0-.61.58l-4.34,56.93a.64.64,0,0,0,.17.47.63.63,0,0,0,.45.2h66.84a.65.65,0,0,0,.45-.2.59.59,0,0,0,.16-.47Z"/></g><g id="coffee-beans"><path id="Fill-1-2" data-name="Fill-1" class="cls-3" d="M71.56,89.62a12.83,12.83,0,0,1,5.79-5.13c-2-3.8-5.61-6-9-5.79,1.56,1.75,2.89,4.77,3.13,9.78A8.2,8.2,0,0,1,71.56,89.62Z"/><path id="Fill-3" class="cls-3" d="M68.48,88.65c-.24-5.54-2-7.84-3.37-8.8-3.38,2.23-4.65,7.36-2.9,12.18a11.39,11.39,0,0,0,7.24,7.18,14,14,0,0,1,.12-4.46A25,25,0,0,1,68.48,88.65Z"/><path id="Fill-4" class="cls-3" d="M85,86.66c-1.38,1-3.13,3.26-3.37,8.75-.25,5-1.75,8.44-3.68,10.8.24,0,.48.06.72.06,3.74,0,7.54-3,9.23-7.42C89.66,94,88.39,88.9,85,86.66Z"/><path id="Fill-6" class="cls-3" d="M81.76,85.58h-.61c-3.74,0-7.54,2.9-9.22,7.42-1.82,4.88-.49,10,2.89,12.18,1.87-1.93,3.56-4.94,3.74-9.83C78.86,90.28,80.19,87.33,81.76,85.58Z"/></g></g></g></g></g></svg>