<svg xmlns="http://www.w3.org/2000/svg" viewBox="0 0 178.97 39.48"><defs><style>.cls-1,.cls-3{fill:#fff;}.cls-2,.cls-3,.cls-6{isolation:isolate;}.cls-3,.cls-6{font-size:24px;}.cls-3{font-family:Raleway-Regular, Raleway;}.cls-4{letter-spacing:-0.01em;}.cls-5{letter-spacing:-0.03em;}.cls-6{fill:#28e7a8;font-family:Raleway-Bold, Raleway;font-weight:700;}</style></defs><title>Asset 1</title><g id="Layer_2" data-name="Layer 2"><g id="Layer_1-2" data-name="Layer 1"><g id="Page-1"><g id="Desktop"><g id="logo"><g id="Group-3"><g id="Group"><path id="Fill-1" class="cls-1" d="M35.9,18.6a2.63,2.63,0,0,0-2.2-1.1H29.25c.05-.67.07-1.23.07-1.62a.69.69,0,0,0-.69-.69H1a.69.69,0,0,0-.69.69c0,3,.8,14.64,10.27,17.49H1.73a1.61,1.61,0,0,0-1.39,1L.07,35A.64.64,0,0,0,.71,36H28.94a.64.64,0,0,0,.64-.95l-.27-.71a1.62,1.62,0,0,0-1.39-1H19.48a12.07,12.07,0,0,0,6.85-5.57,10.49,10.49,0,0,0,9.77-6.94A2.4,2.4,0,0,0,35.9,18.6Zm-1.71,1.49a8.4,8.4,0,0,1-6.78,5.57A24.44,24.44,0,0,0,29,19.56H33.7a.58.58,0,0,1,.49.19A.34.34,0,0,1,34.19,20.09Z"/><path id="Fill-3" class="cls-1" d="M14.56,14.3a.76.76,0,0,0,.55.25.74.74,0,0,0,.48-.18.72.72,0,0,0,.07-1S13.72,11,15,9.48c1.66-2.08.65-3.78-.11-4.39a.72.72,0,0,0-1,.12.73.73,0,0,0,.11,1c.17.15,1,.95-.11,2.35C11.82,11.08,14.45,14.17,14.56,14.3Z"/><path id="Fill-4" class="cls-1" d="M18.46,1.29a.73.73,0,0,0,.11-1,.74.74,0,0,0-1-.11c-.76.61-1.76,2.31-.11,4.39,1.24,1.56-.69,3.84-.71,3.86a.73.73,0,0,0,.55,1.21.72.72,0,0,0,.55-.26c.11-.13,2.74-3.21.75-5.72C17.46,2.25,18.28,1.44,18.46,1.29Z"/></g><g id="CoffeeDrop" class="cls-2"><text class="cls-3" transform="translate(50 33.98)">C<tspan class="cls-4" x="16.46" y="0">o</tspan><tspan class="cls-5" x="30.55" y="0">ff</tspan><tspan x="43.9" y="0">ee</tspan></text><text class="cls-6" transform="translate(123.37 33.98)">D<tspan class="cls-5" x="17.18" y="0">r</tspan><tspan x="25.85" y="0">op</tspan></text></g></g></g></g></g></g></g></svg>